<?xml version="1.0" encoding="UTF-8"?>
<!DOCTYPE svg PUBLIC "-//W3C//DTD SVG 1.1//EN" "http://www.w3.org/Graphics/SVG/1.1/DTD/svg11.dtd">
<!-- Creator: CorelDRAW X7 -->
<svg xmlns="http://www.w3.org/2000/svg" xml:space="preserve" width="21.1666mm" height="21.1666mm" version="1.1" style="shape-rendering:geometricPrecision; text-rendering:geometricPrecision; image-rendering:optimizeQuality; fill-rule:evenodd; clip-rule:evenodd"
viewBox="0 0 2117 2117"
 xmlns:xlink="http://www.w3.org/1999/xlink">
 <defs>
  <style type="text/css">
   <![CDATA[
    .fil1 {fill:none}
    .fil0 {fill:#241E20}
   ]]>
  </style>
 </defs>
 <g id="Layer_x0020_1">
  <metadata id="CorelCorpID_0Corel-Layer"/>
  <path class="fil0" d="M224 551c53,-6 735,-1 851,-1 30,0 190,8 207,-11 12,-12 10,-34 -3,-45 -19,-16 -726,-8 -847,-8 -63,0 -228,-12 -268,11 -17,53 -5,640 -5,747 0,103 -12,694 9,735 37,12 1433,15 1473,2 29,-25 17,-92 17,-133 0,-153 8,-972 -8,-992 -11,-14 -37,-14 -49,2 -14,19 -7,180 -7,209 0,243 11,648 0,855l-1371 -2 1 -1369z"/>
  <path class="fil0" d="M1862 254c-16,24 -869,873 -975,978 -17,16 -59,52 -13,77 27,10 83,-52 105,-76 16,-19 16,-18 34,-34l191 -191c16,-18 16,-19 31,-32 11,-10 23,-25 33,-35l386 -383c28,-30 237,-245 258,-255l0 440c-1,89 58,63 63,28 10,-60 1,-220 1,-290 0,-64 10,-247 -10,-286 -24,-7 -546,-11 -577,-4 -32,7 -49,63 33,63l440 0z"/>
  <rect class="fil1" x="-8" width="2108" height="2108"/>
 </g>
</svg>
